<svg xmlns="http://www.w3.org/2000/svg" width="550.176" height="558.606"><g fill="none" fill-rule="nonzero"><path fill="#4A596D" d="M377.532 40.333c1.216 0 10.944 4.864 16.415 6.688-1.824.61-6.08-1.215-10.944-3.04 1.216 0 3.648.61 6.08 1.823-1.216-1.216-10.335-4.255-11.551-5.47m-90.583-18.847c1.824-.609 23.1 2.431 32.829 3.04.608-.609-1.216-.609-3.649-1.216 3.04-.608 9.12 1.216 13.375 1.823-12.766.608-26.75-3.04-38.907-1.823-4.255 0-1.215-1.215-3.648-1.824m-17.63 0c10.944 0 19.454 0 3.647 1.216-1.825-.609-4.256-.609-3.647-1.216m172.05 50.46c1.215 0 6.08 5.47 8.51 7.294-.608.61-5.47-4.255-7.902-6.08.61.61 0 0-.608-1.215m-12.16-7.904c-4.863-4.255-6.686-4.255-7.294-6.686 4.255 2.43 7.295 4.864 7.295 6.686m-78.424-38.3c.608-.608 1.824.61 4.864 1.216-3.649-.609-3.04 0-1.824 1.215-4.256-.608-5.471-1.215-4.256-2.43 2.431 1.215 3.04.608 1.216 0m-172.66 7.294c0-.608 2.43-1.824 4.255-2.43-1.824 1.215-1.215 1.824 1.824.606 0 .61-3.648 1.825-6.08 3.04 1.216-.609 2.432-2.43 0-1.215m184.82-13.375c-1.823.608-8.51-3.04-15.198-4.256-3.649-1.215 14.59 3.04 15.199 4.256M4.256 319.983c3.648 15.2 1.215 14.59 0 0m.608-91.192c.61-2.432 1.216-9.12 1.823-8.51-1.824 14.59-4.864 21.278-5.471 32.22 1.824-9.727-.609 5.47-1.216 9.12.61 4.862.61-3.04 1.825-1.824 1.215 1.824-2.431 27.358-1.216 13.375-1.216 12.766 0 26.75 2.431 30.396-3.04 19.454 12.16 63.225 15.2 72.345.608.608 0-3.04 1.215-.607 1.215 7.904 6.686 13.375 8.51 21.885 1.825 2.43 9.12 15.806 10.335 18.847 2.432 4.864 3.649 4.255 6.08 9.117 7.295 13.984 18.846 27.36 29.789 40.125 35.26 41.34 89.368 75.385 149.56 87.545 60.187 12.766 123.41 3.648 172.65-20.063 3.04-1.825 2.431-2.432 6.08-3.649 17.023-5.47 37.693-23.1 49.244-29.789 5.47-6.08 20.063-16.415 21.887-22.492 10.335-8.51 20.67-22.494 26.14-31.614 3.04-4.864 5.472-4.864 6.687-7.904-.609 0 9.726-12.766 12.768-20.06-1.215 0-3.04 3.648-3.04 0 21.885-41.949 34.045-98.488 27.356-137.4 1.216 48.027-10.944 101.53-34.045 135.57-10.335 21.884-31.614 45.594-51.066 62.617-3.04 3.04-6.08 6.687-9.728 9.12-11.55 9.726-24.318 17.63-37.69 24.925-31.615 17.63-66.875 32.83-108.22 33.436 71.128-6.08 134.96-41.948 170.23-85.72-26.75 26.142-38.3 36.477-68.09 51.676-2.43 4.255-22.494 12.766-35.869 16.415 7.904-3.649 24.318-9.727 29.79-14.59-44.38 21.28-93.624 33.438-139.83 26.75 17.63 0 42.554.608 66.264-3.647 3.649-1.216 5.471-2.43 9.728-3.04 46.204-10.335 90.583-32.829 122.2-64.443-18.239 16.415-45.595 35.87-63.227 41.948 16.415-9.12 46.204-26.75 55.93-40.124-19.454 19.454-55.93 38.91-79.03 47.42-3.65.608 2.43-2.432-3.65 0-7.294 1.823-4.254 1.823-6.079 3.04-27.965 7.903-60.187 14.59-86.935 12.158-4.864-.609-6.686-1.824-10.944-1.824-4.864-.609-9.12-.609-14.59-.609-21.279-2.43-44.38-10.944-61.403-18.237-9.12-4.255-18.239-7.295-27.358-12.768-7.295-4.255-13.375-9.12-19.453-13.982-23.1-17.023-42.555-34.045-60.796-58.363-32.829-45.595-49.85-102.74-47.419-159.28s24.925-111.86 60.794-152.59c-1.824 1.824 2.431-4.255 6.08-7.902 0 1.216-.609 3.04 3.648-1.216 3.649-4.255-1.215-1.215.607-3.648 37.693-41.34 103.35-74.778 170.83-75.993 2.431-1.824 6.687-4.255 11.551-3.04 0 .61-3.04.61-3.04.61 6.687-.61 12.766-.61 15.806.606.61-.609-2.43-1.216 0-1.216 4.256 1.216 5.471 0 7.904 1.216-1.824 0-3.648 0-4.864.608 15.2 0 24.925 3.65 40.124 4.864-7.904-1.824-9.726-1.824-15.806-3.648 6.687 1.216 9.727 2.431 12.766 1.824-1.215 0-.608-1.824.609-1.215 12.159 3.04 13.375 4.255 26.14 8.51 1.216-1.215-5.47-1.824-7.294-3.648 12.159 4.255 23.1 7.295 30.398 12.16-2.431-1.825-9.727-4.256-15.2-6.688-.608.61 1.825 1.216 2.432 2.432-6.08-3.04-14.59-6.08-23.101-7.296 7.295 1.825 12.159 4.256 15.199 5.471-6.687-1.215-15.2-5.47-24.927-7.295 15.806 4.864 45.595 15.806 63.834 25.534-6.687-4.255-14.59-7.295-18.846-9.726 3.648.608 7.904 3.04 7.904 1.822 4.255 1.824 9.726 6.08 12.766 6.688-5.471-3.648-16.415-9.119-20.061-10.944 45.595 20.67 86.328 55.323 112.47 99.703 2.43 4.256 6.08 13.983 9.119 15.2-.609-3.04-3.04-4.865-5.47-9.727 1.215 0 1.215-1.824 0-3.648-2.432-3.04 0 2.43-2.434-.609-10.944-20.063-24.318-37.693-44.987-57.146 11.551 10.944 3.04 3.04.607-.609 15.806 13.983 34.045 37.693 41.948 49.852-1.215-1.824-1.824-3.04-1.215-3.04 14.59 24.926 23.71 47.42 32.829 79.64.608.61 0-2.43 1.215-.606 6.08 25.534 7.904 46.812 7.295 66.265 4.864-32.83-6.08-83.897-25.534-124.02-2.43-4.864-2.43-1.216-4.864-6.687 0-1.824-1.824-5.47-3.04-7.904-24.317-40.124-54.107-68.698-89.367-91.19 2.43 1.216 7.295 4.864 7.296 4.256-65.658-43.164-141.65-49.244-204.27-35.87-4.255 1.825-6.08 3.65-10.944 6.08 9.12-3.04 14.59-3.648 23.103-5.472 1.825-1.824-7.903.608-3.648-1.216.609.61 8.51-1.215 10.335-.607 0 .61-2.431 1.216-3.04 1.823 20.063-4.256 40.733-4.864 58.363-3.647-10.335.61-29.18-1.216-35.26 1.824 6.08-.608 14.59-1.215 20.061-.608-7.295 0-20.67.608-26.75 1.215-.608-.608 9.727-1.824 3.04-1.822-3.04.608-7.904.608-9.726 2.43-52.283 4.865-103.35 32.22-139.22 64.444-7.295 6.08-15.806 12.766-21.277 19.453-13.375 15.2-21.885 30.398-31.614 43.773 6.08-12.766 19.454-32.22 35.26-48.635s32.829-30.398 41.948-37.693c0 2.43 14.59-9.12 20.063-12.766-3.649 3.04 2.43-1.216 3.646-.609 19.454-11.55 35.26-15.806 52.892-22.494-4.255 1.216-7.903 2.431-8.512 1.824 4.255-1.215 6.686-2.43 6.08-3.04-17.023 4.865-43.773 16.416-65.05 29.182 38.3-26.14 86.937-41.948 134.96-42.555 48.028-1.216 94.839 10.944 131.92 30.398 24.925 10.944 48.635 31.005 67.482 50.46 5.47 4.863 1.215-1.217 9.119 7.294-2.431-1.216-4.255-2.43-1.216 1.215 4.864 5.471-1.215-4.255 6.687 5.471-.609 0-3.04-3.04-3.04-1.824 21.279 18.846 37.693 52.89 47.419 75.386-2.431-9.12-8.51-21.885-13.375-31.005 14.59 26.75 19.454 42.555 25.534 66.265 2.431 1.824-1.216-8.51 1.216-3.647.608 3.65 1.215 15.2 3.648 17.021-1.824-11.55-4.864-25.534-7.295-27.965 1.824 1.216-3.04-13.983-6.08-17.63-1.215-9.726-9.726-26.75-17.023-39.517-26.14-51.068-72.953-93.015-125.24-116.12 0-1.215-3.04-2.43-4.257-3.646C338.606-.403 276.592-6.483 217.022 7.5c-60.188 14.59-116.72 49.244-156.85 99.096 1.824-6.08 17.023-17.63 17.632-22.494-17.63 18.846-36.476 43.773-49.244 70.52-13.375 26.75-20.67 54.108-23.71 74.17"/><path fill="#AAB7C0" d="M152.459 422.368q-1.21-.12-1.476-.302-.279-.18-.642-.968-.483-.544-.568-.847a1 1 0 0 1-.037-.545q.303 0 .545-.036.242-.024.302-.206 0-.18.218-.242a.84.84 0 0 1 .448 0q1.149.06 2.94-.762 1.78-.81 3.872-2.299a43 43 0 0 0 4.077-3.29q1.573-2.058 2.3-3.244.724-1.173.846-1.935.12-.75-.181-1.295-.243-.484-1.755-.4-1.512.097-3.388 1.307-2.6 1.635-4.174 3.025a21.7 21.7 0 0 0-2.904 3.146 9 9 0 0 0-.931 1.452q-.393.72-.763 1.452l-.302.605q0 .243-.69.605-.702.363-1.185.363-.242-.12-.63-.46a1.5 1.5 0 0 1-.52-.87 5 5 0 0 1-.605-.485.9.9 0 0 1-.242-.424q-.06-.363.182-1.15.242-.785.665-2.48a88 88 0 0 1 .823-3.266q.447-1.693.871-2.904.423-1.21.605-1.33l.242-.545q.242-.544.242-1.27.12-.726.4-1.27.265-.545.265-.788.243-.18.726-1.45.484-1.27 1.21-3.329 0-.18.424-1.185.423-.99 1.028-2.36.605-1.354 1.246-2.843.63-1.476 1.053-2.626.726-1.026 1.125-1.91.388-.873.81-1.054.304-.06.763.024.448.097.908.34.447.24.75.725.18.302.242.545.06.24-.182.87-.242.642-.931 2.118-.702 1.488-2.033 4.271-1.695 3.63-2.783 6.473-.96 2.491-1.815 5.021a89 89 0 0 1-1.33 3.751l-.303 1.331 1.512-1.452q.907-.664 1.997-1.633c1.09-.968 1.37-1.21 1.935-1.694q.485-.363 1.307-.762a22 22 0 0 1 1.597-.69q.787-.303 1.15-.363.18-.06.907-.182c.727-.122 1.069-.12 1.754-.12q1.332 0 2.154.604.81.606 1.597 1.936.666 1.27.545 2.868a6.65 6.65 0 0 1-.968 3 3.8 3.8 0 0 0-.605.63q-.303.4-.303.64-.06.424-1.089 1.72a51 51 0 0 1-2.056 2.455q-1.09 1.149-2.662 2.263a37 37 0 0 1-3.11 2.008q-1.548.87-2.637 1.234-.484.06-1.392.218a18 18 0 0 0-1.391.266m79.454-.379q-1.15.302-1.84-.484-.7-.785-.822-2.42-.12-1.635.363-3.872.303-.726.484-1.427.182-.69.182-1.113.12-.605.484-1.79.363-1.175.786-2.445c.423-1.27.557-1.605.823-2.275q.387-.99.508-1.234.242 0 .423-.423c.181-.423.182-.565.182-.847q0-.483.218-1.09.206-.604.447-.846 0-.303.158-.69.144-.4.145-.64 0-.242.157-.485a.93.93 0 0 0 .145-.484q.424-.786 1.126-2.517.69-1.717 1.512-3.835.795-2.077 1.537-4.174.725-2.055 1.185-3.485.448-1.416.448-1.718 0-.483.242-.726.24-.24.726-.242a.9.9 0 0 1 .46-.242 2.3 2.3 0 0 1 .508-.06l.242.242.726.726q.483.424.58.967.085.546.085 1.27 0 .789-.181 1.392c-.181.604-.363.988-.726 1.755l-1.694 3.57a26 26 0 0 1-1.029 2.262q-.544 1.065-.544 1.306c0 .241-.069.404-.206.726q-.217.484-.46 1.21-.24.486-.665 1.416-.424.945-.871 1.996-.46 1.065-.762 1.815-.303.765-.303.883 0 .243-.024.484-.036.244-.278.484-.242 0-.267.327l-.036.34q0 .604-.968 3.205l-1.778 6.11q-.823 2.784-.823 4.477 0 1.452-.06 1.9-.06.46-.545.701m86.559-24.918q.466 0 1.267.813l.149.155q1.391.606 2.032 1.452.573.771.774 2.19l.037.29q.18 1.815-.266 4.138-.435 2.205-2.617 5.404l-.263.38q-1.512 2.178-2.783 3.23a21 21 0 0 1-2.593 1.836l-.432.257q-1.27.847-2.298 1.234-.9.351-2.078.486l-.342.035q-.787 0-1.234-.303a13 13 0 0 1-.91-.672l-.216-.175q-1.149-1.21-1.633-2.335-.43-.99-.335-1.912l.032-.23a2.3 2.3 0 0 0 .158-.943l-.036-.439q-.303-.312-.182-.408a.7.7 0 0 0 .181-.216l.061-.11q.327 0 .261-.54l-.019-.126q-.121-.485.484-2.118a16.7 16.7 0 0 1 1.26-2.667l.252-.418q.363-.606 1.09-1.61a29 29 0 0 1 1.608-1.996 16 16 0 0 1 1.387-1.416l.21-.18q1.513-1.27 2.662-1.876a10 10 0 0 1 2.104-.815l.377-.093q1.33-.3 1.85-.302zm-1.549 3.896q-.934.142-2.02 1.006l-.218.18q-1.876 1.572-3.267 3.896a50 50 0 0 0-2.426 4.648l-.296.651q-.907 2.178-.387 3.485.508 1.294 2.238.895 1.632-.366 4.062-2.898l.257-.272q1.452-1.632 2.336-3.085.783-1.305 1.5-3.25l.157-.44q.242-.666.303-1.67.06-.993-.024-1.876-.09-.783-.39-.96l-.07-.032q-.726-.423-1.755-.278m79.909-3.738.236.062q1.028.12 1.572.448.495.307 1.54 1.186l.215.181a10.3 10.3 0 0 1 1.307 1.573q.406.63.681 1.297l.13.337q.423.907.338 1.657-.085.667-.558 1.353l-.144.196a39 39 0 0 1-1.15 1.573q-.537.7-.836 1.876l-.07.302q-.303 1.816-.969 4.077-.57 1.95-1.007 3.65l-.142.56-.968 3.751q-1.512 5.142-2.867 7.66-1.282 2.347-2.426 3.08l-.152.09q-1.693.665-3.533-.207-1.695-.81-2.956-2.453l-.226-.305q-.24-.363-.568-1.113a18 18 0 0 1-.605-1.55q-.28-.784-.34-1.39-.05-.53.08-.689l.042-.037q.18-.18.605-.12.423.06.823.301.322.202.46.487l.048.118q.18.423.58 1.09.39.665.872 1.21.423.475.661.581l.065.023q1.148.544 1.694.484.454-.05.823-.27l.145-.093q1.028-.786 1.693-2.057.618-1.18 1.393-3.56l.12-.372q.665-2.24 1.367-4.755.636-2.313 1.15-3.676l.084-.22q.18-.726.46-1.247l.088-.162.05-.087a12 12 0 0 0-1.626 1.435q-.915.969-2.259 1.602l-.343.153q-.362.424-1.778.508a7.4 7.4 0 0 1-2.425-.23l-.334-.097a40 40 0 0 1-1.234-.726 1.56 1.56 0 0 1-.605-.665 15 15 0 0 1-.492-1.112l-.089-.22q-.423-.904-.12-2.963.264-1.8.9-3.6l.188-.514q.726-1.512 2.118-3.267a26.6 26.6 0 0 1 2.964-3.182q1.442-1.298 2.63-1.71l.213-.069a3.7 3.7 0 0 1 1.065-.338q.505-.076 1.422.155m-.383 3.43-.168.02q-1.15.183-2.54 1.234a13.8 13.8 0 0 0-2.297 2.253l-.305.385q-.794 1.06-1.356 2.488l-.156.416q-.606 1.815-.726 3.448-.113 1.526.406 1.837l.078.038a7.3 7.3 0 0 0 2.299-.484c1.089-.424 1.431-.758 2.117-1.427q.9-.867 1.8-2.18l.257-.385a9.4 9.4 0 0 0 1.452-3.06 9.4 9.4 0 0 0 .324-2.73l-.022-.38q-.06-.97-.302-1.27-.216-.27-.86-.204z"/><path fill="#4A596D" d="M150.853 362.286q-.516.345-1.152-.172-.653-.516-1.857-1.89-.6-.69-.773-1.463-.172-.773.086-2.923.343-.945.395-1.805.035-.86.035-1.203 0-.517.292-2.407l.653-4.007q.345-2.097.602-3.215 0-.084.086-.43.086-.345.172-.6.172-.775.481-2.065.292-1.29.55-3.18a52 52 0 0 0 1.17-4.264q.464-2.098.464-2.872 0-1.546 1.203-2.235.087-.43.516-1.34.43-.894.774-1.497 1.72-4.899 2.837-7.788 1.118-2.872 2.32-5.02a54 54 0 0 1 1.17-3.01q.636-1.546 1.324-2.407.43-1.118 1.977-2.888a65 65 0 0 1 3.267-3.439q1.72-1.668 2.75-2.527 1.893-.945 3.01-1.29 1.117-.344 2.922-.344 1.635 0 2.201.396.55.378 1.668 1.41 1.202 1.29 1.376 1.72.171.429.171 1.632-.171 1.119-.894 2.872a29 29 0 0 1-1.547 3.18q-.825 1.428-1.341 1.514-1.03.345-1.496-.224-.48-.55-.481-1.84 0-.6-.293-1.169l-.31-.55q0-.258.138-.91.12-.637.465-1.239.429-.86.223-1.29-.224-.43-1.169-.172-.258.174-1.375 1.032a55 55 0 0 0-2.356 1.926 41 41 0 0 0-2.2 2.028q-.946.945-.946 1.204l-.344.722q-.345.741-1.29 1.857a22 22 0 0 0-1.066 1.668q-.48.825-.481.997 0 .345-.035.722-.05.396-.481.396l-.258.773q-.258.774-.946 1.977a13.5 13.5 0 0 1-.86 1.754q-.515.913-.859 1.255h.086l-.378 1.066-.825 2.253q-.43 1.154-.43 1.323 0 .345 1.255.344 1.237 0 2.957-.31a42 42 0 0 0 3.095-.635q1.203-.345 1.633-.344c.43 0 .86.114 1.72.344q.687.43 1.169 1.238.465.825.688 1.547.206.741-.052 1.083-.086.345-1.891.946a28 28 0 0 1-3.611.945q-1.547.345-3.783.774t-3.902.774q-1.686.345-1.685.602-.344 0-.602.378-.258.396-.258.653 0 1.204-.344 1.806a53 53 0 0 0-.602 2.063 118 118 0 0 0-.894 3.438 57 57 0 0 0-.774 3.44q-.309 1.546-.309 2.062-.516.602-.602 1.496a17 17 0 0 0-.086 1.6q-.343.687-.43 1.237a6.4 6.4 0 0 0-.086.911v.344q0 .258-.086.516-.111 1.143-.206 2.287-.138 1.41-.137 2.785l-.258 2.493a16 16 0 0 1-.258 1.943q-.172.81-.602 1.238m24.844-11.863q-.687-.685-.997-1.72a5.8 5.8 0 0 1-.206-2.062q.085-1.03.43-1.72 0-.688.206-1.083.224-.377.137-.722-.086-.343.172-1.204.258-.86.516-1.633a50 50 0 0 0 1.29-3.318q.678-1.897 1.29-3.817.6-1.89 1.03-3.267.43-1.375.517-1.72 0-1.031 1.375-1.117 1.032-.344 1.548-.05.515.31 1.375 1.684.687.687.516 2.063-.172 1.375-1.118 3.44-.344.686-.825 1.976-.465 1.29-.636 2.32a24 24 0 0 0-.826 1.927 46 46 0 0 0-.808 2.372q-.172.43-.343 1.238-.172.826-.43 1.72a6.2 6.2 0 0 1-.688 1.598q-.774 3.525-1.427 4.127-.636.602-2.098-1.032m8.34-34.903q-.43-.43-.775-1.255a5.6 5.6 0 0 1-.43-1.548q-.086-.72.172-.722.688-.086 1.634-1.46c.946-1.376.888-1.72.774-2.408q0-.345.257-.653a1.2 1.2 0 0 1 .602-.379q1.032-.687 2.012-.223.997.48 1.857 1.857.774 1.635.43 2.7-.345 1.083-1.892 2.974-1.29 1.719-2.372 1.89-1.067.174-2.27-.773zm8.407 34.645q-.774-.6-1.066-1.204-.293-.6-.035-2.32.24-2.408.67-4.265.43-1.84 1.05-4.246.17-1.032.98-3.525a82 82 0 0 1 2.028-5.416q1.187-2.923 2.39-5.553 1.22-2.613 2.08-3.903.69-.516 1.669-.43a2.68 2.68 0 0 1 1.685.774q.945.773.292 2.7-.636 1.94-2.63 6.07a463 463 0 0 1-1.53 3.471q-.517 1.171-.43 1.376.085.224.773-.206.516-.945 1.891-2.2a46 46 0 0 1 2.923-2.443 52 52 0 0 1 2.923-2.149q1.375-.944 1.891-1.203a7.8 7.8 0 0 1 1.582-.74q.912-.293 1.255-.464 1.96-.946 4.04-.688 2.064.258 2.58 1.548.07.687.55 1.031l.464.344q.344 0 .396.258l.034.258q0 .603-.894.722-.91.137-2.27.224-1.133.085-1.994.43a81 81 0 0 0-2.046.86 350 350 0 0 0-6.241 3.696q-2.975 1.805-5.708 4.814a11.4 11.4 0 0 0-1.204 1.633q-.6.945-1.29 2.063-.43.43-.86 1.892a51 51 0 0 0-.738 2.785q-.293 1.34-.293 1.6l-.258.807a5.6 5.6 0 0 1-.86 1.6q-1.03 1.375-1.719 1.375-.705 0-2.08-1.376m44.445 0a7.5 7.5 0 0 1-4.161 1.805q-2.373.258-4.608-.739-2.235-.98-3.696-3.043-1.462-1.89-1.892-4.35-.43-2.442-.086-6.396.258-3.352 2.15-6.757a26.6 26.6 0 0 1 4.607-6.052q2.7-2.665 5.365-3.697 1.29-.86 2.2-.825.894.053 2.786.224 1.978.258 2.974.773a4.4 4.4 0 0 1 1.582 1.376q1.29 1.29 1.72 2.527.43 1.255.43 2.46-.345 1.89-2.528 4.59-2.202 2.716-5.726 4.435-1.89.6-4.126.516-2.235-.086-3.697-1.117-1.633-.687-2.149.206-.517.91-.946 4.35-.344 3.267.516 4.762.86 1.515 2.321 1.771 1.72.345 2.717.464.98.138 2.441-.722 1.375-.86 1.72-.997.344-.12.567-.344l1.066-1.066q.602-.6.946-.91.344-.293.773-.293t.774.378q.346.396.688.567.86 0 .395 1.032-.48 1.032-1.857 2.441-1.375 1.43-3.266 2.631m-.086-18.225q.946-.43 1.977-1.255a9.4 9.4 0 0 0 1.77-1.805q.723-.981.723-1.668 0-1.204-1.118-2.029-1.117-.81-3.352-.206-.945.258-2.15 1.238a20.5 20.5 0 0 0-2.269 2.2q-1.083 1.205-1.72 2.15-.653.945-.48 1.117.257.431 1.46.636 1.205.225 2.717.138 1.496-.086 2.442-.516m16.334 21.234q-1.635.43-2.63-.688-.98-1.117-1.153-3.438c-.173-2.32.057-3.382.516-5.502a15 15 0 0 0 .688-2.03q.258-.978.258-1.58.171-.86.687-2.546a172 172 0 0 1 1.118-3.473 61 61 0 0 1 1.17-3.232q.55-1.41.721-1.754.344 0 .602-.602.258-.6.258-1.203 0-.687.292-1.547.31-.86.654-1.204 0-.43.206-.98.223-.567.223-.91 0-.345.207-.689.223-.343.223-.688.6-1.118 1.6-3.576.98-2.44 2.148-5.45a240 240 0 0 0 2.184-5.932q1.032-2.922 1.685-4.952.636-2.01.636-2.44 0-.69.344-1.033.344-.344 1.032-.344a1.3 1.3 0 0 1 .653-.343 3.3 3.3 0 0 1 .722-.086l.344.344 1.032 1.031q.687.602.825 1.376.12.774.12 1.805 0 1.119-.258 1.977c-.258.86-.515 1.404-1.031 2.493q-.774 1.634-2.407 5.072a37 37 0 0 1-1.462 3.215q-.774 1.516-.773 1.857 0 .345-.293 1.032a19 19 0 0 0-.653 1.72q-.345.687-.946 2.01-.6 1.342-1.238 2.838-.556 1.283-1.083 2.58-.43 1.082-.43 1.254 0 .345-.051.688-.035.346-.379.687-.344 0-.378.465l-.051.48q0 .861-1.376 4.557-1.263 4.344-2.544 8.683-1.152 3.954-1.152 6.362-.001 2.062-.086 2.7-.087.653-.774.996m12.55-3.095q-.343-.689-.859-1.083-.516-.378-.516-.722c0-.344-.017-.476-.051-.74q-.035-.378-.379-.722-.429-.515.086-2.372.516-1.839 1.72-4.557a82 82 0 0 1 2.837-5.708q.688-.687 1.375-1.805t1.032-1.46q0-.345.258-.655.258-.29.601-.292v-.516q0-.43.808-1.46.825-1.031 2.03-2.288a55 55 0 0 1 2.492-2.407q1.29-1.152 2.15-1.668 1.805-1.205 3.73-1.46 1.944-.26 3.319.86l.86.858q.6.603 1.41 1.324l1.684 1.513 3.181 2.837-1.547 4.298q-1.117 3.441-.568 6.018.568 2.58 1.685 4.47.43.945 1.754 1.806 1.34.86 2.545 1.031.687.087 1.29.516.6.43.6 1.375 0 .86-.343 1.376t-1.203.688q-2.838.344-5.296-1.376-2.442-1.719-4.505-5.674-.344-.514-.911-1.943-.55-1.41-.636-1.84-.345.43-1.29 1.583-.945 1.17-1.461 1.685-6.105 6.191-10.54 8.287-4.419 2.115-7.342.223m3.096-4.814q0 .602 1.84-.052 1.856-.636 4.005-2.355a92 92 0 0 0 5.88-5.502q2.975-3.008 4.78-5.588l1.892-3.095q-.861-1.977-1.857-2.716-.981-.72-1.668-.722-1.118 0-3.318 2.063-2.184 2.064-4.677 5.502-2.493 3.44-4.728 7.565a51 51 0 0 0-1.513 3.3zm64.303 3.954q-1.72 0-2.855-.739-1.1-.72-1.874-2.44a21 21 0 0 1-.773-5.555q0-1.322.258-1.754.326-.343.292-1.255a34 34 0 0 1-.052-1.925q-.069-1.72-.808-1.943-.72-.207-2.115.567-1.53.945-4.023 2.528a143 143 0 0 0-5.21 3.49 66 66 0 0 0-5.106 3.954q-1.89 2.065-2.287 3.13-.378 1.083-1.083 1.083-.67.344-1.152.034-.48-.29-1.34-.98a46 46 0 0 0-1.187-1.34q-.619-.637-.774-.98 0-.43.24-1.806a41 41 0 0 1 .654-2.75q.396-1.377.55-1.806.43 0 .74-.86t.98-1.89q.19-1.033.91-2.804l1.325-3.13q1.203-2.061 1.685-3.438.464-1.374.653-3.439a.69.69 0 0 1 .155-.636q.275-.31.619-.31.67-.687 1.616-.395.963.31 1.72 1.341 1.563 2.064 1.254 4.247-.29 2.202-2.785 6.241-.474 1.04-.911 2.098-.292.741-.292 1.17l.894-.603q1.039-.702 2.063-1.427 1.17-.806 1.84-1.238.428-.43 1.994-1.547a49 49 0 0 1 3.301-2.2q1.77-1.066 2.63-1.239.672-.345 1.462-.653.774-.29 1.118-.292.67 0 1.753.722a13.4 13.4 0 0 1 2.012 1.72q.963.996 1.135 1.684 0 .345.034.688.034.346.12.688.345 1.118.396 3.008a29 29 0 0 1-.12 3.44q-.173 1.546-.602 1.804l.034.207q.053.225.396.223v.43q-.43 0-.344.722.085.74.55 1.6.464.858.98 1.375 1.05 1.032.86 1.925-.154.912-1.53 1.256m30.759 5.588q-1.12.258-1.84-.292-.74-.566-1.083-1.599-.69-1.977-.98-4.35-.31-2.355-.138-4.16l.172-1.806-3.353 2.665q-2.922 2.58-5.622 3.697-2.715 1.117-4.78 1.117a6.3 6.3 0 0 1-1.891-.687c-.946-.515-1.186-.774-1.668-1.29a6.7 6.7 0 0 1-1.169-1.633q-.516-1.202-.292-3.267.206-2.064 1.031-4.522a31.4 31.4 0 0 1 2.064-4.814q1.238-2.355 2.87-4.16 2.838-4.3 6.105-5.245c3.267-.945 4.327-.315 6.447.946q2.235.945 2.803.86.55-.087.98-1.978.344-1.374.687-2.802.345-1.41 1.118-3.817 2.15-6.534 3.748-10.23 1.38-3.248 2.871-6.448.945-1.977 1.6-2.458.635-.465 1.323-.379.945 0 1.72.688.772.69 1.203 1.891.345.775.31 1.324-.052.57-.568 1.513-1.118 2.063-2.613 5.45a127 127 0 0 0-3.009 7.445 197 197 0 0 0-2.803 7.995 200 200 0 0 0-2.149 6.963q-.516 1.893-.894 4.815a120 120 0 0 0-.653 5.966 79 79 0 0 0-.292 5.416q-.053 2.373.12 3.06.516 1.719.481 2.58-.05.86-.481 1.168-.43.292-1.376.38zm-14.528-9.542a8 8 0 0 0 2.372-.946 31 31 0 0 0 2.442-1.633q2.58-1.978 4.47-3.61c1.89-1.633 2.092-2.75 2.493-4.987q.172-1.632-.292-2.63-.482-.98-1.513-1.84-1.03-.687-2.786-.567-1.77.136-3.662 1.857-2.063 1.89-3.989 5.072-1.943 3.18-2.888 7.823-.172.86.516 1.375c.689.515 1.404.373 2.837.086m31.034 8.253a13 13 0 0 1-3.095-1.857q-1.462-1.152-1.892-1.926 0-.774.258-1.083.26-.291 1.513-.258 1.239.053 4.075.396 1.032 0 2.58-.172a21 21 0 0 0 2.888-.516q1.323-.345 1.495-.86.43 0 .172-.31a14 14 0 0 0-.601-.635q-.345 0-.774-.293-.43-.31-.774-.31 0-.429-.808-.996a9.2 9.2 0 0 0-1.685-.894 81 81 0 0 1-3.267-2.803q-1.375-1.237-1.031-1.668v-.43q-.602 0-1.324-1.719-.74-1.72-.74-3.095 0-1.03.602-2.63.603-1.583 1.634-3.3 1.031-1.72 2.149-2.838 1.548-1.461 3.868-3.147a60 60 0 0 1 4.608-3.008q2.27-1.325 3.817-1.754 1.548-.6 2.889-.602 1.323 0 2.355.602.86.43 1.6 1.238.72.825 1.289 1.633.55.825.722 1.427a17 17 0 0 1-.172 2.27q-.173 1.255-.464 2.2-.31.946-.912.946l-.206.035q-.223.05-.223.481 0 .861-1.29 1.977-1.635 1.117-2.837 1.324-1.205.225-1.461-.894a2.2 2.2 0 0 1-.344-.602q-.085-.258-.43-.258l-.258-.258q-.258-.255-.258-.86 0-.34.258-.653l.258-.292q.43 0 1.118-.997.687-.98 1.255-2.15.55-1.15.55-1.58 0-.518-.12-.603-.138-.086-.826-.086-1.203.516-2.923 1.376a89 89 0 0 0-3.215 1.667q-1.513.825-2.2 1.513-.345.603-.43.723-.087.137-.43.137 0-.345-.55.292a26 26 0 0 0-1.376 1.771 66 66 0 0 0-1.547 2.184q-.74 1.083-1.084 1.6-.171.17-.378.98a5.8 5.8 0 0 0-.223 1.512q-.344 1.03.086 1.427.43.38 1.89 1.582 3.01 2.235 4.73 3.696 1.718 1.463 2.578 2.408c.86.946.917 1.203 1.032 1.72q1.547 2.58.945 3.953-.6 1.377-2.923 2.407-.86.43-2.836.688c-1.976.258-2.665.275-4.04.31q-2.064.034-3.268-.138zM274.604 134.725c-.174 12.678 5.53 20.593 26.153 30.513 17.904 8.61 8.707 37.081 8.707 39.226 0 .544 9.783-11.913 26.158-4.36-.495-.219-15.877 9.071-17.431 26.156-1.477 16.138-10.168 27.558-21.562 34.095 22.784 1.187 38.993 4.22 38.993 7.774 0 4.59-27.001 8.31-60.311 8.312-33.308 0-60.31-3.72-60.31-8.31 0-3.253 13.605-6.07 33.405-7.435-13.352-7.96-21.957-23.679-17.391-47.51-.036.136 10.986 17.566 17.436 8.716 3.9-5.345.961-11.54-2.279-18.26l-.424-.88c-3.678-7.65-7.378-15.955-1.66-24.45 3.655-5.415 11.046-9.389 17.436-8.715-2.029 4.02-3.505 19.961 8.72 21.794 7.28 1.093 12.596-10.796 0-26.153-8.116-9.919 4.345-30 4.36-30.513m-4.363 78.46c3.24 5.818.3 8.465-3.243 11.49l-.369.314-.371.318-.373.322c-1.617 1.408-3.24 2.966-4.364 4.993-3.062 5.515-5.41 22.637 17.443 21.797 17.867-.677 19.042-19.85 8.705-30.52-6.736-6.982-17.362-8.579-17.428-8.715m26.155-87.18c.502 3.633-2.173 9.083 0 13.073 1.685 2.955 4.362 6.3 4.362 8.72 0 3.241-1.207 6.196-4.362 8.715-.48-1.212-1.314-5.187-4.36-8.714-2.667-2.862-4.364-6.3-4.364-8.72 0-4.538 3.705-8.898 8.724-13.074"/></g></svg>